<?xml version="1.0" encoding="UTF-8"?>
<svg width="15px" height="15px" viewBox="0 0 15 15" version="1.1" xmlns="http://www.w3.org/2000/svg" xmlns:xlink="http://www.w3.org/1999/xlink">
    <!-- Generator: Sketch 58 (84663) - https://sketch.com -->
    <title>icon-star-empty-green</title>
    <desc>Created with Sketch.</desc>
    <g id="Page-1" stroke="none" stroke-width="1" fill="none" fill-rule="evenodd">
        <path d="M14.9435101,5.59307406 C14.8146945,5.20768176 14.4823099,4.92586609 14.0810513,4.8618296 L10.1749879,4.26308414 L8.4813188,0.626236683 C8.30398728,0.24432112 7.9211789,0 7.50011567,0 C7.07905244,0 6.69624406,0.24432112 6.51891254,0.626236683 L4.82524344,4.26183415 L0.919180019,4.86057961 C0.517434112,4.92492709 0.184792076,5.20733195 0.0560903136,5.59332142 C-0.0726114485,5.97931089 0.0239792085,6.40484776 0.306709275,6.6974407 L3.16907255,9.64491837 L2.50660419,13.7342624 C2.43634507,14.1450231 2.60796548,14.5596661 2.94796378,14.8006079 C3.28796208,15.0415497 3.73603357,15.0660551 4.10027807,14.8636288 L7.50011567,12.9723932 L10.8999533,14.8636288 C11.0610534,14.9515899 11.2413864,14.9983925 11.4249282,14.9998778 C11.7439819,14.9993345 12.0466425,14.8584585 12.2524902,14.6146817 C12.4583378,14.370905 12.5465278,14.0489131 12.4936271,13.7342624 L11.8311588,9.64491837 L14.6935221,6.6974407 C14.9763831,6.40480477 15.0727682,5.97900613 14.9435101,5.59307406 L14.9435101,5.59307406 Z M10.9624503,8.85304937 C10.7253915,9.09323916 10.6183991,9.4328374 10.674964,9.76554246 L11.3186833,13.7548872 L8.01259119,11.9111512 C7.69399008,11.7336642 7.30624126,11.7336642 6.98764015,11.9111512 L3.68154807,13.7548872 L4.32526732,9.76554246 C4.38183221,9.4328374 4.2748398,9.09323916 4.03778105,8.85304937 L1.2566639,5.97807115 L5.05648239,5.39307558 C5.40386967,5.33723604 5.70108287,5.11302999 5.85019448,4.79433011 L7.50011567,1.24810697 L9.15003686,4.79495511 C9.29930833,5.11341376 9.59649359,5.33736472 9.94374895,5.39307558 L13.7435674,5.97869614 L10.9624503,8.85304937 Z" id="icon-star-empty-green" fill="#22BB33"></path>
    </g>
</svg>